<?xml version="1.0" encoding="UTF-8"?>
<svg viewBox="0 0 640 480" xmlns="http://www.w3.org/2000/svg">
 <path d="m36.449 150.05l15.412-2.9967 23.923-2.1294 35.7-5.4873 44.832 31.59-15.852 18.302-104.02-13.593v-25.686z" fill="#fff" stroke-width=".7"/>
 <path d="m82.726 260.91c-8.6206-2.8017-15.661-8.7302-31.834-26.806-2.1788-2.4352-6.0704-4.6137-11.387-6.3748-4.4426-1.4715-9.3221-3.4837-10.844-4.4716-3.9199-2.5455-6.8364-8.9331-9.0992-19.928-1.0762-5.2295-2.0832-9.5446-2.2377-9.5893-4.3686-1.2628-12.899-7.0858-15.045-10.27-3.3269-4.936-3.0618-9.8946 1.1285-21.109 3.2969-8.8234 13.927-19.76 24.724-25.437 4.1204-2.1665 7.4917-4.431 7.4917-5.0323 0-0.60129 3.4764-3.879 7.7254-7.284 4.2489-3.4049 7.9927-6.8875 8.3196-7.7391 0.32681-0.85167-0.03146-3.206-0.79614-5.2318-1.0502-2.7824-1.0529-4.5772-0.011082-7.3374 1.7091-4.5279-0.050007-9.4094-4.7123-13.077-4.4252-3.4809-7.4063-17.069-6.6994-30.537 0.42222-8.0444 1.1353-10.942 3.8207-15.524 5.5125-9.4064 17.936-16.321 29.325-16.321 2.5616 0 6.2955-1.3546 9.6715-3.5088 7.1735-4.5773 53.056-22.336 61.962-23.982 27.668-5.1148 65.119 4.8878 73.758 19.7 2.8161 4.8284 6.5975 23.231 8.2929 40.359 1.9024 19.219 0.97839 59.837-1.5158 66.632l-1.8734 5.1032 3.4392 2.6882c9.0687 7.0885 10.785 8.2163 15.72 10.332 7.6058 3.2602 16.526 14.973 16.526 21.7 0 4.0468-5.1361 10.973-14.895 20.087-9.9736 9.3142-19.391 14.67-27.376 15.568-7.7418 0.87128-18.481-3.8599-23.057-10.158-4.0247-5.5392-4.9123-5.9031-7.8695-3.2269-1.8736 1.6956-1.9114 2.4452-0.40828 8.091 2.6668 10.017 2.2117 21.268-1.0567 26.123-4.405 6.5438-7.7127 7.5347-19.543 5.8554-5.5607-0.78934-11.317-1.1262-12.792-0.74873-1.4748 0.37752-3.7602 2.683-5.0787 5.1233-4.4847 8.3-7.228 9.394-24.255 9.6734-16.354 0.26836-17.048 0.55353-17.08 7.0197-0.04229 8.4554-11.257 13.273-22.438 9.6393zm16.476-4.9727c2.3102-2.459 2.8159-4.1718 2.6124-8.8482-0.36518-8.3935 0.76676-8.9606 16.246-8.138 16.943 0.90031 21.939-0.34912 26.013-6.5061 4.3726-6.6075 7.3694-7.4526 20.059-5.6565 10.008 1.4165 10.715 1.3675 13.838-0.95738 5.894-4.3881 6.1408-8.4652 1.8513-30.583-0.51593-2.6603 0.40007-4.1956 5.384-9.0247 5.5366-5.3646 6.0673-6.3781 6.7938-12.976 0.43343-3.9365 1.2247-10.36 1.7584-14.275 1.7292-12.684-2.034-20.302-12.365-25.032-10.802-4.9452-17.905-10.54-27.666-21.79-5.1477-5.9334-10.093-10.962-10.99-11.176-1.2399-0.29466-1.631 1.3693-1.631 6.9401 0 7.9066 1.5193 11.617 9.0631 22.132 6.4072 8.931 5.5963 11.352-4.8677 14.532-7.0807 2.1516-15.486 5.6839-17.249 7.2487-0.2572 0.2283 1.7049 3.2927 4.3602 6.8096 6.4417 8.532 12.33 19.74 11.502 21.895-0.89619 2.3354-3.9507 2.1923-10.201-0.47794-10.35-4.4217-37.778-12.312-47.147-13.563-5.2742-0.70418-10.497-1.7562-11.607-2.3378-1.5123-0.79279-2.2073-0.45833-2.7769 1.3362-1.0089 3.1788-5.0052 4.0338-15.38 3.2905-7.2931-0.52252-9.266-0.22911-13.034 1.9386-6.7057 3.8576-7.8866 1.5966-3.5108-6.7221l3.5179-6.6877-2.8407-5.7977c-1.5624-3.1887-3.1903-7.5671-3.6175-9.7297-0.65508-3.3163-1.177-3.815-3.3335-3.1854-15.817 4.6183-29.488 21.405-29.515 36.242-0.013645 7.4065 2.7145 10.783 11.389 14.096l5.1755 1.9765 2.6878 11.855c3.7767 16.657 4.8817 18.126 16.567 22.017 8.2739 2.7555 10.43 4.0781 15.081 9.2504 2.9844 3.3195 5.4262 6.4734 5.4262 7.0089 0 1.8494 16.201 13.166 22.175 15.49 8.3997 3.2671 12.754 3.108 16.232-0.59326zm-24.782-61.581c-5.2086-3.1761-7.4904-6.8488-8.3687-13.47-0.674-5.0809-1.2014-5.8648-5.1017-7.5825l-4.3499-1.9158 4.0811 0.6539c5.5768 0.89366 6.9808 2.3417 7.9511 8.2005 1.8103 10.931 6.2629 13.942 20.931 14.153 7.2576 0.10417 9.1542 0.40955 6.5927 1.0613-7.2416 1.8426-17.785 1.3088-21.736-1.1005zm152.91 2.4886c7.5674-3.7032 23.629-18.377 26.916-24.591 1.9594-3.7035 2.0575-4.769 0.73337-7.9657-2.9867-7.2104-8.3868-13.266-13.961-15.655-5.4023-2.3157-8.3924-4.3232-16.848-11.311-3.1981-2.643-4.4967-3.1592-4.9004-1.9478-0.91266 2.738-4.7953 6.0349-8.0769 6.8586-2.264 0.56821-3.8399 0.075165-5.8771-1.8386l-2.7836-2.615-0.7943 4.2339c-0.43684 2.3286-1.6838 4.7316-2.7709 5.34-1.5607 0.8734-2.0709 3.4657-2.4249 12.319-0.24654 6.167-1.2501 14.005-2.2301 17.418-1.7718 6.1703-1.761 6.2426 1.9041 12.737 3.1481 5.5781 4.5999 6.8971 9.9487 9.0389 7.4183 2.9704 11.826 2.5497 21.164-2.0202zm-85.024-17.326c0-2.51-10.581-19.026-15.371-23.994-6.0321-6.2554-10.601-8.8885-18.912-10.9-6.8193-1.65-6.9004-1.7142-2.2767-1.7992 4.7169-0.086685 16.316 4.3879 17.863 6.8912 0.49903 0.80748 3.8625-0.057617 9.4219-2.4234 4.7552-2.0235 11.242-4.45 14.414-5.3922 7.0229-2.0856 6.9152-2.968-1.9087-15.642-5.341-7.6716-6.1118-9.5675-6.7293-16.552l-0.6974-7.8886-7.7914-2.7961c-4.2853-1.5378-12.66-4.7075-18.61-7.0437-11.39-4.472-31.931-9.2155-39.714-9.171-4.5786 0.026154-12.065 2.8765-16.532 6.2942-2.1545 1.6485-2.2095 2.1714-0.70692 6.7242 1.2704 3.8494 1.3217 5.6117 0.23291 8.0014-0.76801 1.6856-1.0502 4.4441-0.62699 6.13 0.81831 3.2604 1.7257 3.3147 14.51 0.86828 8.0342-1.5375 13.346 2.394 11.762 8.7057-1.0286 4.0983-7.8034 6.8188-14.296 5.7406-6.0063-0.99744-11.535-3.6874-11.535-5.6123 0-1.5982-9.2115 7.0558-14.384 13.513l-3.3985 4.243 2.0648 6.0991c1.1356 3.3545 2.9812 7.4978 4.1014 9.2074l2.0367 3.1084 6.9583-3.7946 6.9583-3.7946-1.1775-4.4114c-2.2574-8.4573 2.262-14.098 12.83-16.013 7.7151-1.398 10.184-3.11 12.043-8.3501 1.7227-4.8568 1.7468-4.8723 1.8402-1.1872 0.14749 5.8205-3.7026 9.6556-11.429 11.385-9.5332 2.1334-12.45 4.768-12.45 11.247 0 3.8467 0.80529 6.1721 3.0689 8.8623 7.5906 9.0209 24.59 4.1493 30.735-8.8077 2.2783-4.8041 2.2936-4.8123 1.8419-0.99518-0.3259 2.7537 0.080406 3.9933 1.4277 4.356 1.284 0.34558 1.0964 0.55113-0.5895 0.6459-1.36 0.076492-4.057 1.8253-5.9934 3.8862-4.6009 4.897-11.862 8.1804-18.163 8.2132-3.9458 0.020569-5.965-0.77476-9.2178-3.6307l-4.1652-3.6571-4.7065 2.4011c-2.5886 1.3206-6.2996 3.7415-8.2467 5.3799-3.5284 2.969-8.5296 12.156-7.2914 13.395 0.35845 0.35846 2.4108-0.41804 4.5608-1.7256 3.2559-1.98 5.2597-2.264 11.991-1.6997 8.9761 0.7525 14.328-0.1303 14.356-2.368 0.045288-3.6404 1.8336-4.559 5.457-2.803 1.9331 0.93686 8.1605 2.3033 13.839 3.0365 14.218 1.836 22.362 4.1204 36.39 10.208 12.835 5.5693 16.216 6.3847 16.216 3.9105zm-44.351-54.361c-7.6299-2.4869-10.788-4.5553-10.788-7.0653 0-5.6933 3.5377-7.9134 14.437-9.0603 8.3734-0.88108 10.901-0.73077 14.536 0.86436 7.6123 3.3405 7.1524 10.991-0.86198 14.34-3.9001 1.6295-13.572 2.1438-17.323 0.92121zm18.672-3.3706c3.7764-2.4744 4.0013-8.3677 0.39306-10.299-2.233-1.195-2.4246-1.0721-1.7316 1.1112 0.42854 1.3502 0.17226 3.589-0.56953 4.975-1.0796 2.0173-1.6907 2.2362-3.0631 1.0972-2.3708-1.9676-2.1493-6.7428 0.38326-8.2613 1.5358-0.92088-0.14983-1.0776-6.293-0.58496-13.874 1.1125-17.381 2.6781-17.381 7.7604 0 6.1769 20.578 9.236 28.262 4.2013zm-1.8908-7.8408c0-0.65926-0.53942-1.1987-1.1987-1.1987-0.65926 0-1.1987 0.53942-1.1987 1.1987 0 0.65929 0.53941 1.1987 1.1987 1.1987 0.65926 0 1.1987-0.53938 1.1987-1.1987zm84.645 28.044c0.43095-1.7171 0.19244-5.8974-0.53001-9.2897-0.72247-3.3922-1.6015-8.0556-1.9533-10.363-0.86794-5.6918-5.8635-21.528-6.7995-21.555-0.41447-0.011818-1.3951 1.5273-2.1792 3.4204-0.78412 1.893-3.5792 5.6169-6.2113 8.2753-4.3584 4.402-6.2745 5.535-13.631 8.0597-2.3301 0.79973-2.3195 0.87852 0.37637 2.8094 1.5256 1.0926 7.1893 4.422 12.586 7.3987 7.4803 4.1258 10.382 6.4754 12.21 9.8858 2.8079 5.2399 5.0339 5.7329 6.1319 1.3582zm17.291-5.0032c5.5125-7.008 6.5475-14.401 6.4976-46.414-0.045425-29.18-1.4587-44.893-5.3315-59.275-2.8401-10.547-10.429-17.168-25.37-22.133-18.824-6.2554-42.802-6.6265-58.718-0.9087-26.433 9.4963-39.869 14.706-44.226 17.147l-5.0664 2.8389 8.8684 0.7333c9.9591 0.82346 19.595 3.3584 29.622 7.7925 8.3516 3.6932 29.856 17.924 45.14 29.871 6.2976 4.9228 12.471 8.9505 13.718 8.9505 6.644 0 14.679-12.736 16.64-26.374 1.784-12.412 4.5158-20.228 8.7978-25.169l3.6352-4.1954-2.4953 4.5182c-3.1694 5.7387-5.789 15.048-6.824 24.25-0.44493 3.9556-1.5254 8.9451-2.4011 11.088-0.87564 2.1426-1.4848 3.8954-1.3536 3.8951 2.0526-0.005196 13.845-5.4687 15.03-6.9634 1.4753-1.8611 1.5729-1.8308 1.1987 0.37129-0.26408 1.5541-2.9596 3.6623-7.663 5.9934-4.1172 2.0406-9.4977 6.0588-12.439 9.2897-2.8509 3.1316-6.1935 5.6937-7.4281 5.6937-3.1376 0-2.8103 1.1386 1.3534 4.7074 3.0957 2.6534 3.7697 4.3392 4.8271 12.074 0.67596 4.9445 2.2241 11.687 3.4404 14.983 1.2162 3.2964 2.6028 9.2298 3.0812 13.185 0.47841 3.9556 1.5694 8.8746 2.4243 10.931 3.1599 7.6008 10.344 9.0906 15.042 3.1192zm-139.18-15.199c0.70403-0.43513 1.2066-2.5124 1.1168-4.6161-0.1393-3.2638-0.24213-3.3853-0.70085-0.82826-0.81113 4.5213-2.6089 5.7792-4.5338 3.1723-1.1512-1.559-1.3147-3.0786-0.54831-5.0944 0.95183-2.5035 0.74943-2.8659-1.5752-2.8198-4.1222 0.081795-13.885 2.8938-15.438 4.4467-1.6482 1.6483 0.42448 4.7157 4.3381 6.42 2.6035 1.1338 15.206 0.63914 17.341-0.68062zm88.028-4.5454c3.4831-12.997-3.7555-21.991-12.371-15.369-3.287 2.5262-3.6789 1.5782 5.115 12.373 2.5512 3.1316 5.0648 5.6937 5.5857 5.6937 0.52098 0 1.2725-1.2136 1.67-2.697zm-89.619-2.9717c-0.39828-0.39832-0.6816 0.30965-0.62955 1.5733 0.057503 1.3964 0.34155 1.6804 0.72418 0.72419 0.34628-0.86528 0.30369-1.8991-0.094635-2.2974zm97.327 1.5756c3.9938-2.0923 9.8497-8.3079 13.083-13.887 6.5482-11.298 4.5301-16.316-10.642-26.462-6.1549-4.1158-14.158-10.004-17.783-13.084-8.0909-6.8735-36.71-23.8-44.935-26.577-8.9097-3.0079-26.322-5.0034-36.691-4.205-26.183 2.0161-36.626 14.73-33.464 40.742 1.2897 10.607 3.7232 17.599 6.1255 17.599 0.68837 0 3.5064-1.5326 6.2623-3.4059 13.982-9.5036 26.883-8.4251 61.729 5.1602 10.544 4.1108 18.849 6.6363 21.822 6.6363 2.64 0 5.7979 0.62318 7.0175 1.3848 1.7806 1.112 3.3304 0.84607 7.8661-1.3496 4.5605-2.2077 6.1962-2.485 8.491-1.4394 4.8444 2.2073 6.8382 6.5691 6.3786 13.954-0.4464 7.1714-0.14 7.4902 4.7411 4.9331z"/>
 <path d="m99.202 255.94c2.3102-2.459 2.8159-4.1718 2.6124-8.8482-0.36518-8.3935 0.76676-8.9606 16.246-8.138 16.943 0.90031 21.939-0.34912 26.013-6.5061 4.3726-6.6075 7.3694-7.4526 20.059-5.6565 10.008 1.4165 10.715 1.3675 13.838-0.95738 5.894-4.3881 6.1408-8.4652 1.8513-30.583-0.51593-2.6603 0.40007-4.1956 5.384-9.0247 5.5366-5.3646 6.0673-6.3781 6.7938-12.976 0.43343-3.9365 1.2247-10.36 1.7584-14.275 1.7292-12.684-2.034-20.302-12.365-25.032-10.802-4.9452-17.905-10.54-27.666-21.79-5.1477-5.9334-10.093-10.962-10.99-11.176-1.2399-0.29466-1.631 1.3693-1.631 6.9401 0 7.9066 1.5193 11.617 9.0631 22.132 6.4072 8.931 5.5963 11.352-4.8677 14.532-7.0807 2.1516-15.486 5.6839-17.249 7.2487-0.2572 0.2283 1.7049 3.2927 4.3602 6.8096 6.4417 8.532 12.33 19.74 11.502 21.895-0.89619 2.3354-3.9507 2.1923-10.201-0.47794-10.35-4.4217-37.778-12.312-47.147-13.563-5.2742-0.70418-10.497-1.7562-11.607-2.3378-1.5123-0.79279-2.2073-0.45833-2.7769 1.3362-1.0089 3.1788-5.0052 4.0338-15.38 3.2905-7.2931-0.52252-9.266-0.22911-13.034 1.9386-6.7057 3.8576-7.8866 1.5966-3.5108-6.7221l3.5179-6.6877-2.8407-5.7977c-1.5624-3.1887-3.1903-7.5671-3.6175-9.7297-0.65508-3.3163-1.177-3.815-3.3335-3.1854-15.817 4.6183-29.488 21.405-29.515 36.242-0.013645 7.4065 2.7145 10.783 11.389 14.096l5.1755 1.9765 2.6878 11.855c3.7767 16.657 4.8817 18.126 16.567 22.017 8.2739 2.7555 10.43 4.0781 15.081 9.2504 2.9844 3.3195 5.4262 6.4734 5.4262 7.0089 0 1.8494 16.201 13.166 22.175 15.49 8.3997 3.2671 12.754 3.108 16.232-0.59326z" fill="#fff"/>
 <path d="m74.42 194.36c-5.2086-3.1761-7.4904-6.8488-8.3687-13.47-0.674-5.0809-1.2014-5.8648-5.1017-7.5825l-4.3499-1.9158 4.0811 0.6539c5.5768 0.89366 6.9808 2.3417 7.9511 8.2005 1.8103 10.931 6.2629 13.942 20.931 14.153 7.2576 0.10417 9.1542 0.40955 6.5927 1.0613-7.2416 1.8426-17.785 1.3088-21.736-1.1005z"/>
 <path d="m227.33 196.85c7.5674-3.7032 23.629-18.377 26.916-24.591 1.9594-3.7035 2.0575-4.769 0.73337-7.9657-2.9867-7.2104-8.3868-13.266-13.961-15.655-5.4023-2.3157-8.3924-4.3232-16.848-11.311-3.1981-2.643-4.4967-3.1592-4.9004-1.9478-0.91266 2.738-4.7953 6.0349-8.0769 6.8586-2.264 0.56821-3.8399 0.075165-5.8771-1.8386l-2.7836-2.615-0.7943 4.2339c-0.43684 2.3286-1.6838 4.7316-2.7709 5.34-1.5607 0.8734-2.0709 3.4657-2.4249 12.319-0.24654 6.167-1.2501 14.005-2.2301 17.418-1.7718 6.1703-1.761 6.2426 1.9041 12.737 3.1481 5.5781 4.5999 6.8971 9.9487 9.0389 7.4183 2.9704 11.826 2.5497 21.164-2.0202z" fill="#fff"/>
 <path d="m98.177 144.34c9.5114-5.1143 20.047 3.3269 26.859 6.1847 2.3973 1.0056 6.0079-1.9887 9.0637-2.8024 4.7553-2.0235 10.172-4.8781 13.344-5.8203 7.0229-2.0856 6.9152-2.968-1.9087-15.642-5.341-7.6716-6.1118-9.5675-6.7293-16.552l-0.6974-7.8886-7.7914-2.7961c-4.2853-1.5378-12.66-4.7075-18.61-7.0437-11.39-4.472-31.931-9.2155-39.714-9.171-4.5786 0.026154-12.065 2.8765-16.532 6.2942-2.1545 1.6485-2.2095 2.1714-0.70692 6.7242 1.2704 3.8494 1.3217 5.6117 0.23291 8.0014-0.76801 1.6856-1.0502 4.4441-0.62699 6.13 0.81831 3.2604 1.7257 3.3147 14.51 0.86828 8.0342-1.5375 13.346 2.394 11.762 8.7057-1.0286 4.0983-7.8034 6.8188-14.296 5.7406-6.0063-0.99744-11.535-3.6874-11.535-5.6123 0-1.5982-9.2115 7.0558-14.384 13.513l-3.3985 4.243 2.0648 6.0991c1.1356 3.3545 2.9812 7.4978 4.1014 9.2074l2.0367 3.1084 6.9583-3.7946 6.9583-3.7946-1.1775-4.4114c-2.2574-8.4573 2.262-14.098 12.83-16.013 7.7151-1.398 10.184-3.11 12.043-8.3501 1.7227-4.8568 1.7468-4.8723 1.8402-1.1872 0.14749 5.8205-3.7026 9.6556-11.429 11.385-9.5332 2.1334-12.45 4.768-12.45 11.247 0 3.8467 0.80529 6.1721 3.0689 8.8623 16.803 13.189 21.259-3.0863 34.314-5.4342z" fill="#ffefeb"/>
 <path d="m97.954 125.16c-7.6299-2.4869-10.788-4.5553-10.788-7.0653 0-5.6933 3.5377-7.9134 14.437-9.0603 8.3734-0.88108 10.901-0.73077 14.536 0.86436 7.6123 3.3405 7.1524 10.991-0.86198 14.34-3.9001 1.6295-13.572 2.1438-17.323 0.92121z"/>
 <path d="m116.63 121.79c3.7764-2.4744 4.0013-8.3677 0.39306-10.299-2.233-1.195-2.4246-1.0721-1.7316 1.1112 0.42854 1.3502 0.17226 3.589-0.56953 4.975-1.0796 2.0173-1.6907 2.2362-3.0631 1.0972-2.3708-1.9676-2.1493-6.7428 0.38326-8.2613 1.5358-0.92088-0.14983-1.0776-6.293-0.58496-13.874 1.1125-17.381 2.6781-17.381 7.7604 0 6.1769 20.578 9.236 28.262 4.2013z" fill="#fffcff"/>
 <path d="m216.67 136.99c5.5125-7.008 6.5475-14.401 6.4976-46.414-0.045425-29.18-1.4587-44.893-5.3315-59.275-2.8401-10.547-10.429-17.168-25.37-22.133-18.824-6.2554-42.802-6.6265-58.718-0.9087-26.433 9.4963-39.869 14.706-44.226 17.147l-5.0664 2.8389 8.8684 0.7333c9.9591 0.82346 19.595 3.3584 29.622 7.7925 8.3516 3.6932 29.856 17.924 45.14 29.871 6.2976 4.9228 12.471 8.9505 13.718 8.9505 6.644 0 14.679-12.736 16.64-26.374 1.784-12.412 4.5158-20.228 8.7978-25.169l3.6352-4.1954-2.4953 4.5182c-3.1694 5.7387-5.789 15.048-6.824 24.25-0.44493 3.9556-1.5254 8.9451-2.4011 11.088-0.87564 2.1426-1.4848 3.8954-1.3536 3.8951 2.0526-0.005196 13.845-5.4687 15.03-6.9634 1.4753-1.8611 1.5729-1.8308 1.1987 0.37129-0.26408 1.5541-2.9596 3.6623-7.663 5.9934-4.1172 2.0406-9.4977 6.0588-12.439 9.2897-2.8509 3.1316-6.1935 5.6937-7.4281 5.6937-3.1376 0-2.8103 1.1386 1.3534 4.7074 3.0957 2.6534 3.7697 4.3392 4.8271 12.074 0.67596 4.9445 2.2241 11.687 3.4404 14.983 1.2162 3.2964 2.6028 9.2298 3.0812 13.185 0.47841 3.9556 1.5694 8.8746 2.4243 10.931 3.1599 7.6008 10.344 9.0906 15.042 3.1192z" fill="#d40000"/>
 <path d="m77.495 121.79c0.70403-0.43513 1.2066-2.5124 1.1168-4.6161-0.1393-3.2638-0.24213-3.3853-0.70085-0.82826-0.81113 4.5213-2.6089 5.7792-4.5338 3.1723-1.1512-1.559-1.3147-3.0786-0.54831-5.0944 0.95183-2.5035 0.74943-2.8659-1.5752-2.8198-4.1222 0.081795-13.885 2.8938-15.438 4.4467-1.6482 1.6483 0.42448 4.7157 4.3381 6.42 2.6035 1.1338 15.206 0.63914 17.341-0.68062z" fill="#fffcff"/>
 <path d="m165.52 117.25c3.4831-12.997-3.7555-21.991-12.371-15.369-3.287 2.5262-3.6789 1.5782 5.115 12.373 2.5512 3.1316 5.0648 5.6937 5.5857 5.6937 0.52098 0 1.2725-1.2136 1.67-2.697z" fill="#ffefeb"/>
 <path d="m173.23 115.85c3.9938-2.0923 9.8497-8.3079 13.083-13.887 6.5482-11.298 4.5301-16.316-10.642-26.462-6.1549-4.1158-14.158-10.004-17.783-13.084-8.0909-6.8735-36.71-23.8-44.935-26.577-8.9097-3.0079-26.322-5.0034-36.691-4.205-26.183 2.0161-36.626 14.73-33.464 40.742 1.2897 10.607 3.7232 17.599 6.1255 17.599 0.68837 0 3.5064-1.5326 6.2623-3.4059 13.982-9.5036 26.883-8.4251 61.729 5.1602 10.544 4.1108 18.849 6.6363 21.822 6.6363 2.64 0 5.7979 0.62318 7.0175 1.3848 1.7806 1.112 3.3304 0.84607 7.8661-1.3496 4.5605-2.2077 6.1962-2.485 8.491-1.4394 4.8444 2.2073 6.8382 6.5691 6.3786 13.954-0.4464 7.1714-0.14 7.4902 4.7411 4.9331z" fill="#fff"/>
 <g fill="none" stroke="#000" stroke-width="5">
  <path d="m53.642 110.1s0.088402-0.13361 0.19268-0.38536c0.07373-0.17801 0.22934-0.16985 0.57803-0.77071 0.21625-0.37264 0.32629-0.66644 0.57804-0.77071 0.17801-0.07373 0.65258-0.56216 1.1561-0.77071 0.17801-0.073738 1.1093 0.62479 1.9268-0.19268 0.13625-0.13625 0.19556-0.1456 0.57803-0.19268 0.78848-0.097061 2.2887-0.67311 2.8902-0.77071 0.76076-0.12346 2.8724-0.28828 3.6609-0.38535 1.3386-0.1648 2.8897 0.51733 4.817-0.38535 0.24676-0.11558 0.77071-0.19268 2.3121-0.19268 0.57803 0 2.1003-0.38493 5.0096-0.57803 2.3071-0.15312 2.482 0.036659 3.0828 0.38535 0.37264 0.21626 3.5974 1.442 5.5877 1.7341 1.5251 0.22384 2.6091 0.32629 2.5048 0.57803-0.073738 0.17801-0.96925 0.15533-2.3121 0.38535-0.96837 0.16587-0.71204 0.48762 0 0.19268 0.50349-0.20855 0.45702-0.45956 1.1561-0.96339 0.22105-0.15932 1.2321-0.091782 2.5048-0.57803 0.64896-0.24794 0.69305-0.578 1.9268-0.96339 3.9014-1.2187 4.2389-0.57804 5.0096-0.57804 1.7341 0 2.6975-0.19267 3.8536-0.19267 0.77071 0 1.9329-0.083939 2.5048 0 1.9903 0.29211 3.2755 0.57803 4.2389 0.57803 1.3488 0 2.3121 0.19268 2.5048 0.19268 1.3488 0 1.5128 0.19173 3.4682 0.38535 0.19174 0.01899 1.1563-0.008728 1.3488 0 2.126 0.096436 3.2685 0.41626 4.0462 0.57803 1.1475 0.23866 2.9029 0.36179 3.2755 0.57803 0.60087 0.34869 1.5669 0.91625 2.3121 1.3488 0.60087 0.3487 1.6349 1.1274 2.5048 1.5414 0.71732 0.34142 1.497 0.63646 1.7341 0.77071 1.3826 0.78284 1.7341 0.38535 2.1195 0.38535 0.57803 0 0.54407 0.28637 0.96339 0.38536 0.18752 0.044266 0.32808 0.29699 0.96339 0.57803 0.72652 0.32139 1.5466 0.53377 1.7341 0.57803 0.41933 0.098991 1.7341 0.57803 4.817 0.57803h0.38536"/>
  <path d="m52.293 120.51s0.2294 0.34293 1.3488 1.3488c1.0335 0.92866 2.3855 1.642 2.8902 2.1195 0.69986 0.66206 0.91087 1.0572 1.5414 1.3488 1.2732 0.58877 2.7539 0.63447 2.8902 0.77071 0.13624 0.13624 0.56005 0.57766 3.6609 0.77071 0.3846 0.023949 1.5295 0.28868 2.6975 0.38535 0.57606 0.047676 1.7341 0 1.9268 0 0.19268 0 0.93502-0.22603 1.1561-0.38535 1.0486-0.75574 1.8706-1.093 3.0828-1.5414 0.74509-0.27563 1.6441 0.32346 2.8902-0.19268 0.25175-0.10428 1.4459-0.58488 2.3121-1.1561 0.90994-0.60001 1.6309-1.6309 2.3121-2.3121 0.68122-0.68122 1.3821-0.93501 1.5414-1.1561 0.25192-0.34952 0.28829-0.56026 0.38535-1.3488 0.16479-1.3386 0-2.1195 0-3.2755v-1.9268"/>
  <path d="m54.798 110.68s0.098392-0.050865 0.96339-1.5414c0.34869-0.60086 1.7595-1.1089 2.5048-1.5414 0.60087-0.34869 3.2755-1.3488 4.2389-1.5414 0.96339-0.19268 2.122-0.54717 2.3121-0.57803 0.60143-0.097603 1.1383-0.28829 1.9268-0.38536 0.19124-0.023544 0.24911-0.056435 0.38535-0.19268 0.27249-0.27249 0.57803 0 0.77071 0 1.7341 0 2.6975-0.19267 3.2755-0.19267 0.19268 0 0.57804-0.19268 0.77071-0.19268h2.8902c1.5414 0 2.9342-0.22121 3.4682 0 0.25175 0.10428 1.7393 0.53377 1.9268 0.57803 0.83864 0.19798 1.3653 0.46636 1.7341 0.57803 0.6649 0.20132 1.2306 0.94752 1.7341 1.1561 0.17802 0.073738 0.38536 0 0.57803 0.19267h0.19268v0.19268h0.19268"/>
  <path d="m54.412 111.45s0.68385-0.37672 1.3488-0.57803c0.73764-0.22334 1.0988-0.10431 1.7341-0.38536 0.72652-0.32139 0.94562-0.48096 1.7341-0.57803 0.19124-0.023544 0.91378-0.45335 1.1561-0.57803 1.0421-0.5363 1.2619-0.37672 1.9268-0.57803 0.55323-0.1675 0.77586 0.044266 0.96339 0 0.41932-0.098991 0.4599-0.36948 0.96339-0.57803 0.89006-0.36868 1.3488-0.19268 1.1561-0.19268-0.57803 0-1.1458 0.22491-2.3121 0.57803-2.1026 0.63661-2.1759 0.63447-2.3121 0.77071-0.13625 0.13625-0.19268 0.19268-0.19268 0.38535 0 0.19268 0.18612 0.096436 2.3121 0 0.19248-0.008728 0.22201-0.045204 0.57803-0.19267 0.50349-0.20856 1.1327-0.67311 1.7341-0.77071 0.19019-0.030861 1.3502-0.16914 1.5414-0.19268 0.78848-0.097069 2.5048-0.19268 2.8902-0.19268 0.38535 0 0.57803-0.19267 0.77071-0.19267 0.19267 0 0.54408-0.28637 0.96339-0.38536 1.6877-0.39842 1.9268 0 2.3121 0h1.3487"/>
  <path d="m62.698 110.3s0 0.19267 0.77071 0.19267 1.1919-0.13344 1.5414-0.38535c0.22105-0.15933 0.78583-0.34486 1.3488-0.57803 0.39805-0.16488 0.55367-0.25213 0.96339-0.38536 1.1146-0.36244 2.8822-0.67422 4.6243-0.77071 0.19238-0.010658 0.77071 0 0.96339 0h1.5414c0.38535 0 1.5234 0.01992 1.7341 0.19268 0.53725 0.44044 1.1946 0.91103 1.7341 1.3488 0.80573 0.65376 1.275 0.78538 1.3488 0.96339 0.20855 0.50349 0.60083 0.48711 0.77071 0.57803 0.6125 0.3278 0.40421 1.3149 0.77071 1.5414 0.1639 0.1013 1.4822 0.80655 1.7341 1.1561 0.15933 0.22105 0.12795 0.030701-0.57803-1.5414-0.85012-1.8931-3.5697-4.6808-2.8902-5.7803 0.20259-0.3278 2.4929 0.86672 3.6609 0.96339 1.1521 0.095352 2.6975 0 6.7437 0 0.19268 0 0.57203-0.065109 2.3121-0.19267 5.384-0.39468 6.165-0.20857 5.973-0.19268-2.336 0.19334-3.4573 0.79917-4.4316 1.1561-0.57213 0.20957-1.5414 0.38536-2.8902 0.77071s-1.9676 0.65214-2.1195 0.77071c-0.62618 0.48891-0.38536 1.1561-0.57804 1.5414-0.19267 0.38535-0.18276 0.82826-0.38535 1.1561-0.2265 0.36649-0.35682 0.42936-0.57803 0.96339-0.10428 0.25174-0.38536 0.57803-0.38536 0.96339v2.1195c0 0.38536 0.29493 0.6367 0 1.3488-0.10427 0.25175-0.28775 0.36196-0.38535 0.96339-0.061729 0.38038 0 0.57803 0 1.1561v0.19268"/>
  <path d="m82.351 121.86s0.13361-0.088402 0.38536-0.19268c0.17801-0.07373 0.44179 0.13625 0.57803 0 0.13625-0.13625 0.30555 0.079803 0.57803-0.19268 0.13624-0.13624 0.3953-0.31612 1.1561-0.19267 0.60144 0.097595 0.78102 0.10413 1.1561 0.19267 0.41931 0.098991 1.3846 0.5188 1.7341 0.77071 0.22105 0.15932 0.97806 0.31162 1.1561 0.38536 0.50349 0.20855 1.1854 0.62324 1.5414 0.77071 0.75523 0.31283 1.1561 0.96339 2.3121 1.3488 1.7341 0.57803 2.3852 0.44247 4.817 1.1561 1.8209 0.53433 3.491 1.2284 4.817 1.5414 1.186 0.27998 2.6975 0.57803 3.0828 0.57803 0.19267 0 1.158 0.054626 1.9268 0 1.359-0.096581 1.5473-0.17577 2.1195-0.38534 0.97429-0.35689 2.3915-0.57198 3.0828-0.96339 0.23712-0.13425 1.7232-0.60651 2.6975-0.96339 0.57212-0.20957 2.1973-0.85 3.0828-1.5414 0.42955-0.33539 0.64889-1.2647 1.3488-1.9268 0.50468-0.47742 0.99674-0.74233 1.1561-0.96339 0.25192-0.34952 0.67311-0.55463 0.77071-1.1561 0.030861-0.19019 0.47376-0.13361 0.57803-0.38535 0.07373-0.17802 1.11-0.46549 1.7341-0.77071 0.54735-0.2677 1.6768-0.48966 2.3121-0.77071 0.72652-0.3214 1.7112-0.82726 3.0828-1.3488 0.56953-0.21654 2.1422-0.4577 3.4682-0.77071 0.59302-0.13998 1.4824-0.47376 1.7341-0.57803 0.53404-0.2212 0.57803-0.19268 0.77071-0.19268h3.0829"/>
  <path d="m84.663 110.1s-0.38536 1.9268-0.57803 1.9268v-0.38535"/>
  <path d="m84.663 110.87s-0.96339-0.19268-1.5414-1.1561v-0.19267"/>
  <path d="m95.453 108.37s0.54408-0.28636 0.96339-0.38535c0.18752-0.044266 1.1006-0.57449 2.1195-0.77071 0.1892-0.036438 0.77071-0.19268 2.5048-0.19268 0.38536 0 1.1093-0.19016 2.3121-0.38535 0.38038-0.061729 0.94909-0.48122 1.9268-0.57803 1.1504-0.11391 1.7341 0 1.9268 0 1.7341 0 2.6975 0 3.4682 0.19267 0.77071 0.19268 1.2564 0.50847 1.7341 0.77071 1.5572 0.85481 2.4978 0.79304 3.0828 0.96339 2.2882 0.66634 2.5114 0.55241 4.0462 0.96339 2.71 0.72567 3.325 0.7316 3.4682 0.96339 0.32033 0.5183 0.67173 1.5075 0.77071 1.9268 0.22134 0.93762 0 1.7341 0 2.3121 0 0.38535-0.31006 0.4777-1.3488-0.96339-0.65692-0.91142-0.90432-2.0311-1.1561-1.9268-0.35603 0.14747 0.60036 2.3052 0.77071 2.8902 0.22212 0.76275-0.21346 0.80984 1.1561-0.38535 3.1838-2.7785 6.1891-1.9001 5.973-1.7341-3.3545 2.5771-3.4682 2.1195-1.3488 2.1195l1.7341-0.1927"/>
  <path d="m131.48 114.73s0.17491 0.095612 0.96338 0.19268c0.38248 0.047089 0.57803 0 0.77072 0h3.8536c0.19267 0 0.24912 0.056435 0.38536 0.19268 0.13625 0.13624 0.41467-0.14746 0.77071 0 0.25176 0.10427 0.38536 0.19267 0.57803 0.19267h0.77072"/>
  <polyline points="139 116.08 139 116.08" stroke-linecap="round"/>
  <path d="m117.55 124.48s0.10581-0.18404 0.77071-0.38535c0.18441-0.055832 0.60681-0.28406 0.77071-0.38536 0.36649-0.2265 1.3488-0.77071 2.1195-1.3488 0.77071-0.57803 1.0639-0.92027 1.9268-1.3488 1.2564-0.62386 2.1728-0.81464 2.8902-1.1561 0.86988-0.41403 1.3541-0.5553 3.8536-1.1561 0.77243-0.18566 1.5414-0.38535 2.5048-0.77071l2.6975-0.9634 1.5414-0.1927 0.9634-0.3854"/>
  <path d="m118.9 123.9s0.67688 0.62004 3.2755-0.77071c0.24025-0.12858 2.3447-0.57938 2.8902-0.77071 1.1642-0.40838 1.4221-1.2415 2.5048-1.5414 0.74274-0.20573 1.3982-0.46606 2.3121-0.77071 0.18278-0.060928 1.5236-0.67364 2.3121-0.77071 1.7211-0.21187 2.1558-0.080025 2.3121-0.19268 0.49429-0.35626 0.5784-0.56606 0.77072-0.57803 1.5504-0.096527 1.4978-0.54629 2.5048-0.96339 0.35603-0.14747 0.57803 0 1.1561 0h0.19267"/>
  <path d="m123.13 105.99s0.3868-0.023544 0.57803 0c1.577 0.19413 3.0651 1.059 3.8536 1.1561 0.57369 0.070625 0.95631 0.41627 1.7341 0.57803 1.1475 0.23866 1.9854 0.47576 2.6975 0.77071 0.25174 0.10428 1.1561 0.19268 1.5414 0.19268 1.5414 0 2.0159-0.048141 2.5048 0.57803 0.11858 0.15187 0.26543-0.032631 0.57803 0.19268 0.49429 0.35626 0.38536 0.57803 0.38536 0.77071h0.38536l0.1927 0.578"/>
  <path d="m126.6 105.99s-0.57803 0.19268-1.1561 0.19268h-2.5048c-0.19267 0-2.5048 0.19267-3.0828 0.19267-0.96339 0-3.6609-0.38535-6.7437-0.77071h-3.4682"/>
  <path d="m137.01 109.26s0.52161-0.056435 0.38536-0.19268c-0.27249-0.27249-0.79158 0.21862-1.9268 0-1.0189-0.19622-0.63707-0.62997 0.57803 0.19268 0.22565 0.15277 0.39911 0.80382 0.77072 2.3121 0.39381 1.5984 0.3002 3.3582 0.77071 4.4316 0.88193 2.0121 2.5503 1.6431 2.1195 2.5048-0.2585 0.51701-3.6018-0.66644-3.8536-0.77071-1.7801-0.73737-2.6975 0-3.8536 0.19268v0.38535h-0.57805v0.19268"/>
 </g>
</svg>
